<svg xmlns="http://www.w3.org/2000/svg" width="1800" height="1100" viewBox="0 0 1800 1100">
<defs>
  <linearGradient id="bgGlow" x1="0%" y1="0%" x2="100%" y2="100%">
    <stop offset="0%" stop-color="#ffffff" />
    <stop offset="100%" stop-color="#eef2ff" />
  </linearGradient>
  <filter id="shadow" x="-20%" y="-20%" width="140%" height="140%">
    <feDropShadow dx="0" dy="6" stdDeviation="10" flood-color="#b4bfd4" flood-opacity="0.35"/>
  </filter>
  <marker id="arrow" markerWidth="14" markerHeight="14" refX="10" refY="7" orient="auto">
    <path d="M0,0 L14,7 L0,14 z" fill="#25324d" />
  </marker>
</defs>
<rect x="0" y="0" width="1800" height="1100" fill="#f7f8fc" /><circle cx="1450" cy="150" r="220" fill="#e6ecff" fill-opacity="0.55" /><circle cx="260" cy="960" r="200" fill="#fff2db" fill-opacity="0.45" /><rect x="40" y="32" width="1720" height="1036" rx="28" ry="28" fill="url(#bgGlow)" stroke="#dce3f2" stroke-width="2.5" /><text x="80" y="92" font-size="36" font-weight="800" fill="#172033" text-anchor="start" font-family="Inter, Segoe UI, PingFang SC, Microsoft YaHei, Noto Sans CJK SC, sans-serif"><tspan x="80" dy="0">SVDomain 里的 SVD 矩阵是怎么来的、保留了什么、又是怎么截断的</tspan></text><text x="80" y="134" font-size="20" font-weight="500" fill="#5b6577" text-anchor="start" font-family="Inter, Segoe UI, PingFang SC, Microsoft YaHei, Noto Sans CJK SC, sans-serif"><tspan x="80" dy="0">按仓库真实流程：x_raw / x_rank → x_rep → StandardScaler → TruncatedSVD → LogisticRegression 分类头</tspan></text><rect x="70" y="180" width="470" height="660" rx="24" ry="24" fill="#ffffff" stroke="#dbe2f1" stroke-width="2.2" /><rect x="92" y="200" width="106" height="38" rx="19.0" ry="19.0" fill="#e8f1ff" stroke="#2f6fed" stroke-width="1.8" /><text x="145.0" y="225.0" font-size="21" font-weight="650" fill="#2f6fed" text-anchor="middle" font-family="Inter, Segoe UI, PingFang SC, Microsoft YaHei, Noto Sans CJK SC, sans-serif"><tspan x="145.0" dy="0">① 矩阵来源</tspan></text><text x="92" y="270" font-size="26" font-weight="750" fill="#172033" text-anchor="start" font-family="Inter, Segoe UI, PingFang SC, Microsoft YaHei, Noto Sans CJK SC, sans-serif"><tspan x="92" dy="0">先在一个固定 domain + position 下收集样本</tspan></text><text x="92" y="309" font-size="19" font-weight="500" fill="#5b6577" text-anchor="start" font-family="Inter, Segoe UI, PingFang SC, Microsoft YaHei, Noto Sans CJK SC, sans-serif"><tspan x="92" dy="0">每一行是一个 run / sample；每一列是一个特征</tspan></text><rect x="98" y="340" width="230" height="150" rx="18" ry="18" fill="#ffffff" stroke="#2f6fed" stroke-width="2.5" /><rect x="112" y="354" width="82" height="34" rx="12" ry="12" fill="#e8f1ff" stroke="#2f6fed" stroke-width="1.5" /><text x="153" y="378" font-size="18" font-weight="700" fill="#2f6fed" text-anchor="middle" font-family="Inter, Segoe UI, PingFang SC, Microsoft YaHei, Noto Sans CJK SC, sans-serif"><tspan x="153" dy="0">X_raw</tspan></text><text x="210" y="384" font-size="17" font-weight="500" fill="#5b6577" text-anchor="start" font-family="Inter, Segoe UI, PingFang SC, Microsoft YaHei, Noto Sans CJK SC, sans-serif"><tspan x="210" dy="0">原始特征矩阵  (n × d_raw)</tspan></text><rect x="116" y="400" width="28" height="16" rx="4" ry="4" fill="#bcd2ff" fill-opacity="0.85" stroke="none" /><rect x="149" y="400" width="28" height="16" rx="4" ry="4" fill="#bcd2ff" fill-opacity="0.58" stroke="none" /><rect x="182" y="400" width="28" height="16" rx="4" ry="4" fill="#bcd2ff" fill-opacity="0.85" stroke="none" /><rect x="215" y="400" width="28" height="16" rx="4" ry="4" fill="#bcd2ff" fill-opacity="0.58" stroke="none" /><rect x="248" y="400" width="28" height="16" rx="4" ry="4" fill="#f5f6fa" fill-opacity="0.85" stroke="none" /><rect x="281" y="400" width="28" height="16" rx="4" ry="4" fill="#f5f6fa" fill-opacity="0.58" stroke="none" /><rect x="116" y="421" width="28" height="16" rx="4" ry="4" fill="#bcd2ff" fill-opacity="0.58" stroke="none" /><rect x="149" y="421" width="28" height="16" rx="4" ry="4" fill="#bcd2ff" fill-opacity="0.85" stroke="none" /><rect x="182" y="421" width="28" height="16" rx="4" ry="4" fill="#bcd2ff" fill-opacity="0.58" stroke="none" /><rect x="215" y="421" width="28" height="16" rx="4" ry="4" fill="#bcd2ff" fill-opacity="0.85" stroke="none" /><rect x="248" y="421" width="28" height="16" rx="4" ry="4" fill="#f5f6fa" fill-opacity="0.58" stroke="none" /><rect x="281" y="421" width="28" height="16" rx="4" ry="4" fill="#f5f6fa" fill-opacity="0.85" stroke="none" /><rect x="116" y="442" width="28" height="16" rx="4" ry="4" fill="#bcd2ff" fill-opacity="0.85" stroke="none" /><rect x="149" y="442" width="28" height="16" rx="4" ry="4" fill="#bcd2ff" fill-opacity="0.58" stroke="none" /><rect x="182" y="442" width="28" height="16" rx="4" ry="4" fill="#bcd2ff" fill-opacity="0.85" stroke="none" /><rect x="215" y="442" width="28" height="16" rx="4" ry="4" fill="#bcd2ff" fill-opacity="0.58" stroke="none" /><rect x="248" y="442" width="28" height="16" rx="4" ry="4" fill="#f5f6fa" fill-opacity="0.85" stroke="none" /><rect x="281" y="442" width="28" height="16" rx="4" ry="4" fill="#f5f6fa" fill-opacity="0.58" stroke="none" /><rect x="116" y="463" width="28" height="16" rx="4" ry="4" fill="#bcd2ff" fill-opacity="0.58" stroke="none" /><rect x="149" y="463" width="28" height="16" rx="4" ry="4" fill="#bcd2ff" fill-opacity="0.85" stroke="none" /><rect x="182" y="463" width="28" height="16" rx="4" ry="4" fill="#bcd2ff" fill-opacity="0.58" stroke="none" /><rect x="215" y="463" width="28" height="16" rx="4" ry="4" fill="#bcd2ff" fill-opacity="0.85" stroke="none" /><rect x="248" y="463" width="28" height="16" rx="4" ry="4" fill="#f5f6fa" fill-opacity="0.58" stroke="none" /><rect x="281" y="463" width="28" height="16" rx="4" ry="4" fill="#f5f6fa" fill-opacity="0.85" stroke="none" /><rect x="116" y="484" width="28" height="16" rx="4" ry="4" fill="#bcd2ff" fill-opacity="0.85" stroke="none" /><rect x="149" y="484" width="28" height="16" rx="4" ry="4" fill="#bcd2ff" fill-opacity="0.58" stroke="none" /><rect x="182" y="484" width="28" height="16" rx="4" ry="4" fill="#bcd2ff" fill-opacity="0.85" stroke="none" /><rect x="215" y="484" width="28" height="16" rx="4" ry="4" fill="#bcd2ff" fill-opacity="0.58" stroke="none" /><rect x="248" y="484" width="28" height="16" rx="4" ry="4" fill="#f5f6fa" fill-opacity="0.85" stroke="none" /><rect x="281" y="484" width="28" height="16" rx="4" ry="4" fill="#f5f6fa" fill-opacity="0.58" stroke="none" /><text x="116" y="474" font-size="16" font-weight="500" fill="#5b6577" text-anchor="start" font-family="Inter, Segoe UI, PingFang SC, Microsoft YaHei, Noto Sans CJK SC, sans-serif"><tspan x="116" dy="0">行: 一个 run / sample</tspan></text><text x="116" y="495" font-size="16" font-weight="500" fill="#5b6577" text-anchor="start" font-family="Inter, Segoe UI, PingFang SC, Microsoft YaHei, Noto Sans CJK SC, sans-serif"><tspan x="116" dy="0">列: 一个表示维度</tspan></text><rect x="308" y="340" width="230" height="150" rx="18" ry="18" fill="#ffffff" stroke="#1f9d61" stroke-width="2.5" /><rect x="322" y="354" width="82" height="34" rx="12" ry="12" fill="#e7f8ef" stroke="#1f9d61" stroke-width="1.5" /><text x="363" y="378" font-size="18" font-weight="700" fill="#1f9d61" text-anchor="middle" font-family="Inter, Segoe UI, PingFang SC, Microsoft YaHei, Noto Sans CJK SC, sans-serif"><tspan x="363" dy="0">X_rank</tspan></text><text x="420" y="384" font-size="17" font-weight="500" fill="#5b6577" text-anchor="start" font-family="Inter, Segoe UI, PingFang SC, Microsoft YaHei, Noto Sans CJK SC, sans-serif"><tspan x="420" dy="0">problem 内排序后归一化到 [0,1]</tspan></text><rect x="326" y="400" width="28" height="16" rx="4" ry="4" fill="#b9eccf" fill-opacity="0.85" stroke="none" /><rect x="359" y="400" width="28" height="16" rx="4" ry="4" fill="#b9eccf" fill-opacity="0.58" stroke="none" /><rect x="392" y="400" width="28" height="16" rx="4" ry="4" fill="#b9eccf" fill-opacity="0.85" stroke="none" /><rect x="425" y="400" width="28" height="16" rx="4" ry="4" fill="#b9eccf" fill-opacity="0.58" stroke="none" /><rect x="458" y="400" width="28" height="16" rx="4" ry="4" fill="#f5f6fa" fill-opacity="0.85" stroke="none" /><rect x="491" y="400" width="28" height="16" rx="4" ry="4" fill="#f5f6fa" fill-opacity="0.58" stroke="none" /><rect x="326" y="421" width="28" height="16" rx="4" ry="4" fill="#b9eccf" fill-opacity="0.58" stroke="none" /><rect x="359" y="421" width="28" height="16" rx="4" ry="4" fill="#b9eccf" fill-opacity="0.85" stroke="none" /><rect x="392" y="421" width="28" height="16" rx="4" ry="4" fill="#b9eccf" fill-opacity="0.58" stroke="none" /><rect x="425" y="421" width="28" height="16" rx="4" ry="4" fill="#b9eccf" fill-opacity="0.85" stroke="none" /><rect x="458" y="421" width="28" height="16" rx="4" ry="4" fill="#f5f6fa" fill-opacity="0.58" stroke="none" /><rect x="491" y="421" width="28" height="16" rx="4" ry="4" fill="#f5f6fa" fill-opacity="0.85" stroke="none" /><rect x="326" y="442" width="28" height="16" rx="4" ry="4" fill="#b9eccf" fill-opacity="0.85" stroke="none" /><rect x="359" y="442" width="28" height="16" rx="4" ry="4" fill="#b9eccf" fill-opacity="0.58" stroke="none" /><rect x="392" y="442" width="28" height="16" rx="4" ry="4" fill="#b9eccf" fill-opacity="0.85" stroke="none" /><rect x="425" y="442" width="28" height="16" rx="4" ry="4" fill="#b9eccf" fill-opacity="0.58" stroke="none" /><rect x="458" y="442" width="28" height="16" rx="4" ry="4" fill="#f5f6fa" fill-opacity="0.85" stroke="none" /><rect x="491" y="442" width="28" height="16" rx="4" ry="4" fill="#f5f6fa" fill-opacity="0.58" stroke="none" /><rect x="326" y="463" width="28" height="16" rx="4" ry="4" fill="#b9eccf" fill-opacity="0.58" stroke="none" /><rect x="359" y="463" width="28" height="16" rx="4" ry="4" fill="#b9eccf" fill-opacity="0.85" stroke="none" /><rect x="392" y="463" width="28" height="16" rx="4" ry="4" fill="#b9eccf" fill-opacity="0.58" stroke="none" /><rect x="425" y="463" width="28" height="16" rx="4" ry="4" fill="#b9eccf" fill-opacity="0.85" stroke="none" /><rect x="458" y="463" width="28" height="16" rx="4" ry="4" fill="#f5f6fa" fill-opacity="0.58" stroke="none" /><rect x="491" y="463" width="28" height="16" rx="4" ry="4" fill="#f5f6fa" fill-opacity="0.85" stroke="none" /><rect x="326" y="484" width="28" height="16" rx="4" ry="4" fill="#b9eccf" fill-opacity="0.85" stroke="none" /><rect x="359" y="484" width="28" height="16" rx="4" ry="4" fill="#b9eccf" fill-opacity="0.58" stroke="none" /><rect x="392" y="484" width="28" height="16" rx="4" ry="4" fill="#b9eccf" fill-opacity="0.85" stroke="none" /><rect x="425" y="484" width="28" height="16" rx="4" ry="4" fill="#b9eccf" fill-opacity="0.58" stroke="none" /><rect x="458" y="484" width="28" height="16" rx="4" ry="4" fill="#f5f6fa" fill-opacity="0.85" stroke="none" /><rect x="491" y="484" width="28" height="16" rx="4" ry="4" fill="#f5f6fa" fill-opacity="0.58" stroke="none" /><text x="326" y="474" font-size="16" font-weight="500" fill="#5b6577" text-anchor="start" font-family="Inter, Segoe UI, PingFang SC, Microsoft YaHei, Noto Sans CJK SC, sans-serif"><tspan x="326" dy="0">行: 一个 run / sample</tspan></text><text x="326" y="495" font-size="16" font-weight="500" fill="#5b6577" text-anchor="start" font-family="Inter, Segoe UI, PingFang SC, Microsoft YaHei, Noto Sans CJK SC, sans-serif"><tspan x="326" dy="0">列: 一个表示维度</tspan></text><line x1="255" y1="495" x2="289" y2="495" stroke="#7d899f" stroke-width="3" stroke-linecap="round" /><text x="235" y="483" font-size="36" font-weight="800" fill="#7d899f" text-anchor="middle" font-family="Inter, Segoe UI, PingFang SC, Microsoft YaHei, Noto Sans CJK SC, sans-serif"><tspan x="235" dy="0">+</tspan></text><rect x="92" y="545" width="410" height="175" rx="20" ry="20" fill="#fbfcff" stroke="#d7deee" stroke-width="2.0" /><text x="112" y="582" font-size="22" font-weight="720" fill="#172033" text-anchor="start" font-family="Inter, Segoe UI, PingFang SC, Microsoft YaHei, Noto Sans CJK SC, sans-serif"><tspan x="112" dy="0">根据 route 的 representation 组出真正送进 SVD 的大矩阵 X_rep</tspan></text><rect x="114" y="612" width="110" height="34" rx="17.0" ry="17.0" fill="#e8f1ff" stroke="#2f6fed" stroke-width="1.8" /><text x="169.0" y="635.0" font-size="18" font-weight="650" fill="#2f6fed" text-anchor="middle" font-family="Inter, Segoe UI, PingFang SC, Microsoft YaHei, Noto Sans CJK SC, sans-serif"><tspan x="169.0" dy="0">raw</tspan></text><rect x="236" y="612" width="110" height="34" rx="17.0" ry="17.0" fill="#e7f8ef" stroke="#1f9d61" stroke-width="1.8" /><text x="291.0" y="635.0" font-size="18" font-weight="650" fill="#1f9d61" text-anchor="middle" font-family="Inter, Segoe UI, PingFang SC, Microsoft YaHei, Noto Sans CJK SC, sans-serif"><tspan x="291.0" dy="0">rank</tspan></text><rect x="358" y="612" width="130" height="34" rx="17.0" ry="17.0" fill="#eef3ff" stroke="#7658ff" stroke-width="1.8" /><text x="423.0" y="635.0" font-size="18" font-weight="650" fill="#7658ff" text-anchor="middle" font-family="Inter, Segoe UI, PingFang SC, Microsoft YaHei, Noto Sans CJK SC, sans-serif"><tspan x="423.0" dy="0">raw+rank</tspan></text><text x="114" y="670" font-size="18" font-weight="700" fill="#172033" text-anchor="start" font-family="Inter, Segoe UI, PingFang SC, Microsoft YaHei, Noto Sans CJK SC, sans-serif"><tspan x="114" dy="0">常见理解：</tspan></text><text x="194" y="670" font-size="18" font-weight="500" fill="#5b6577" text-anchor="start" font-family="Inter, Segoe UI, PingFang SC, Microsoft YaHei, Noto Sans CJK SC, sans-serif"><tspan x="194" dy="0">只用原值 / 只用排序值 / 两者拼接</tspan></text><text x="114" y="700" font-size="20" font-weight="650" fill="#7658ff" text-anchor="start" font-family="Inter, Segoe UI, PingFang SC, Microsoft YaHei, Noto Sans CJK SC, sans-serif"><tspan x="114" dy="0">如果是 raw+rank：X_rep = [X_raw[:, F], X_rank[:, F]]</tspan></text><rect x="182" y="742" width="245" height="155" rx="18" ry="18" fill="#ffffff" stroke="#7658ff" stroke-width="2.5" /><rect x="196" y="756" width="82" height="34" rx="12" ry="12" fill="#efe9ff" stroke="#7658ff" stroke-width="1.5" /><text x="237" y="780" font-size="18" font-weight="700" fill="#7658ff" text-anchor="middle" font-family="Inter, Segoe UI, PingFang SC, Microsoft YaHei, Noto Sans CJK SC, sans-serif"><tspan x="237" dy="0">X_rep</tspan></text><text x="294" y="786" font-size="17" font-weight="500" fill="#5b6577" text-anchor="start" font-family="Inter, Segoe UI, PingFang SC, Microsoft YaHei, Noto Sans CJK SC, sans-serif"><tspan x="294" dy="0">最终 SVD 输入矩阵  (n × d_rep)</tspan></text><rect x="200" y="802" width="28" height="16" rx="4" ry="4" fill="#c9bcff" fill-opacity="0.85" stroke="none" /><rect x="233" y="802" width="28" height="16" rx="4" ry="4" fill="#c9bcff" fill-opacity="0.58" stroke="none" /><rect x="266" y="802" width="28" height="16" rx="4" ry="4" fill="#c9bcff" fill-opacity="0.85" stroke="none" /><rect x="299" y="802" width="28" height="16" rx="4" ry="4" fill="#e7f8ef" fill-opacity="0.58" stroke="none" /><rect x="332" y="802" width="28" height="16" rx="4" ry="4" fill="#e7f8ef" fill-opacity="0.85" stroke="none" /><rect x="365" y="802" width="28" height="16" rx="4" ry="4" fill="#e7f8ef" fill-opacity="0.58" stroke="none" /><rect x="200" y="823" width="28" height="16" rx="4" ry="4" fill="#c9bcff" fill-opacity="0.58" stroke="none" /><rect x="233" y="823" width="28" height="16" rx="4" ry="4" fill="#c9bcff" fill-opacity="0.85" stroke="none" /><rect x="266" y="823" width="28" height="16" rx="4" ry="4" fill="#c9bcff" fill-opacity="0.58" stroke="none" /><rect x="299" y="823" width="28" height="16" rx="4" ry="4" fill="#e7f8ef" fill-opacity="0.85" stroke="none" /><rect x="332" y="823" width="28" height="16" rx="4" ry="4" fill="#e7f8ef" fill-opacity="0.58" stroke="none" /><rect x="365" y="823" width="28" height="16" rx="4" ry="4" fill="#e7f8ef" fill-opacity="0.85" stroke="none" /><rect x="200" y="844" width="28" height="16" rx="4" ry="4" fill="#c9bcff" fill-opacity="0.85" stroke="none" /><rect x="233" y="844" width="28" height="16" rx="4" ry="4" fill="#c9bcff" fill-opacity="0.58" stroke="none" /><rect x="266" y="844" width="28" height="16" rx="4" ry="4" fill="#c9bcff" fill-opacity="0.85" stroke="none" /><rect x="299" y="844" width="28" height="16" rx="4" ry="4" fill="#e7f8ef" fill-opacity="0.58" stroke="none" /><rect x="332" y="844" width="28" height="16" rx="4" ry="4" fill="#e7f8ef" fill-opacity="0.85" stroke="none" /><rect x="365" y="844" width="28" height="16" rx="4" ry="4" fill="#e7f8ef" fill-opacity="0.58" stroke="none" /><rect x="200" y="865" width="28" height="16" rx="4" ry="4" fill="#c9bcff" fill-opacity="0.58" stroke="none" /><rect x="233" y="865" width="28" height="16" rx="4" ry="4" fill="#c9bcff" fill-opacity="0.85" stroke="none" /><rect x="266" y="865" width="28" height="16" rx="4" ry="4" fill="#c9bcff" fill-opacity="0.58" stroke="none" /><rect x="299" y="865" width="28" height="16" rx="4" ry="4" fill="#e7f8ef" fill-opacity="0.85" stroke="none" /><rect x="332" y="865" width="28" height="16" rx="4" ry="4" fill="#e7f8ef" fill-opacity="0.58" stroke="none" /><rect x="365" y="865" width="28" height="16" rx="4" ry="4" fill="#e7f8ef" fill-opacity="0.85" stroke="none" /><rect x="200" y="886" width="28" height="16" rx="4" ry="4" fill="#c9bcff" fill-opacity="0.85" stroke="none" /><rect x="233" y="886" width="28" height="16" rx="4" ry="4" fill="#c9bcff" fill-opacity="0.58" stroke="none" /><rect x="266" y="886" width="28" height="16" rx="4" ry="4" fill="#c9bcff" fill-opacity="0.85" stroke="none" /><rect x="299" y="886" width="28" height="16" rx="4" ry="4" fill="#e7f8ef" fill-opacity="0.58" stroke="none" /><rect x="332" y="886" width="28" height="16" rx="4" ry="4" fill="#e7f8ef" fill-opacity="0.85" stroke="none" /><rect x="365" y="886" width="28" height="16" rx="4" ry="4" fill="#e7f8ef" fill-opacity="0.58" stroke="none" /><text x="200" y="876" font-size="16" font-weight="500" fill="#5b6577" text-anchor="start" font-family="Inter, Segoe UI, PingFang SC, Microsoft YaHei, Noto Sans CJK SC, sans-serif"><tspan x="200" dy="0">行: 一个 run / sample</tspan></text><text x="200" y="897" font-size="16" font-weight="500" fill="#5b6577" text-anchor="start" font-family="Inter, Segoe UI, PingFang SC, Microsoft YaHei, Noto Sans CJK SC, sans-serif"><tspan x="200" dy="0">列: 一个表示维度</tspan></text><line x1="542" y1="470" x2="668" y2="470" stroke="#25324d" stroke-width="3" stroke-linecap="round" marker-end="url(#arrow)" /><rect x="580" y="250" width="290" height="430" rx="24" ry="24" fill="#ffffff" stroke="#dbe2f1" stroke-width="2.2" /><rect x="604" y="272" width="114" height="38" rx="19.0" ry="19.0" fill="#e8f1ff" stroke="#2f6fed" stroke-width="1.8" /><text x="661.0" y="297.0" font-size="21" font-weight="650" fill="#2f6fed" text-anchor="middle" font-family="Inter, Segoe UI, PingFang SC, Microsoft YaHei, Noto Sans CJK SC, sans-serif"><tspan x="661.0" dy="0">② 预处理</tspan></text><text x="604" y="340" font-size="30" font-weight="800" fill="#2f6fed" text-anchor="start" font-family="Inter, Segoe UI, PingFang SC, Microsoft YaHei, Noto Sans CJK SC, sans-serif"><tspan x="604" dy="0">StandardScaler</tspan></text><text x="604" y="382" font-size="22" font-weight="700" fill="#172033" text-anchor="start" font-family="Inter, Segoe UI, PingFang SC, Microsoft YaHei, Noto Sans CJK SC, sans-serif"><tspan x="604" dy="0">按列做标准化</tspan></text><text x="604" y="416" font-size="21" font-weight="650" fill="#172033" text-anchor="start" font-family="Inter, Segoe UI, PingFang SC, Microsoft YaHei, Noto Sans CJK SC, sans-serif"><tspan x="604" dy="0">X_scaled = (X_rep - mean) / std</tspan></text><text x="604" y="464" font-size="18" font-weight="500" fill="#5b6577" text-anchor="start" font-family="Inter, Segoe UI, PingFang SC, Microsoft YaHei, Noto Sans CJK SC, sans-serif"><tspan x="604" dy="0">目的：不同特征量纲先拉齐，</tspan></text><text x="604" y="489" font-size="18" font-weight="500" fill="#5b6577" text-anchor="start" font-family="Inter, Segoe UI, PingFang SC, Microsoft YaHei, Noto Sans CJK SC, sans-serif"><tspan x="604" dy="0">避免大尺度列主导 SVD 方向</tspan></text><rect x="610" y="528" width="230" height="150" rx="18" ry="18" fill="#ffffff" stroke="#2f6fed" stroke-width="2.5" /><rect x="624" y="542" width="82" height="34" rx="12" ry="12" fill="#e8f1ff" stroke="#2f6fed" stroke-width="1.5" /><text x="665" y="566" font-size="18" font-weight="700" fill="#2f6fed" text-anchor="middle" font-family="Inter, Segoe UI, PingFang SC, Microsoft YaHei, Noto Sans CJK SC, sans-serif"><tspan x="665" dy="0">X_scaled</tspan></text><text x="722" y="572" font-size="17" font-weight="500" fill="#5b6577" text-anchor="start" font-family="Inter, Segoe UI, PingFang SC, Microsoft YaHei, Noto Sans CJK SC, sans-serif"><tspan x="722" dy="0">标准化后的矩阵  (n × d_rep)</tspan></text><rect x="628" y="588" width="28" height="16" rx="4" ry="4" fill="#b9cbff" fill-opacity="0.85" stroke="none" /><rect x="661" y="588" width="28" height="16" rx="4" ry="4" fill="#b9cbff" fill-opacity="0.58" stroke="none" /><rect x="694" y="588" width="28" height="16" rx="4" ry="4" fill="#b9cbff" fill-opacity="0.85" stroke="none" /><rect x="727" y="588" width="28" height="16" rx="4" ry="4" fill="#b9cbff" fill-opacity="0.58" stroke="none" /><rect x="760" y="588" width="28" height="16" rx="4" ry="4" fill="#f5f6fa" fill-opacity="0.85" stroke="none" /><rect x="793" y="588" width="28" height="16" rx="4" ry="4" fill="#f5f6fa" fill-opacity="0.58" stroke="none" /><rect x="628" y="609" width="28" height="16" rx="4" ry="4" fill="#b9cbff" fill-opacity="0.58" stroke="none" /><rect x="661" y="609" width="28" height="16" rx="4" ry="4" fill="#b9cbff" fill-opacity="0.85" stroke="none" /><rect x="694" y="609" width="28" height="16" rx="4" ry="4" fill="#b9cbff" fill-opacity="0.58" stroke="none" /><rect x="727" y="609" width="28" height="16" rx="4" ry="4" fill="#b9cbff" fill-opacity="0.85" stroke="none" /><rect x="760" y="609" width="28" height="16" rx="4" ry="4" fill="#f5f6fa" fill-opacity="0.58" stroke="none" /><rect x="793" y="609" width="28" height="16" rx="4" ry="4" fill="#f5f6fa" fill-opacity="0.85" stroke="none" /><rect x="628" y="630" width="28" height="16" rx="4" ry="4" fill="#b9cbff" fill-opacity="0.85" stroke="none" /><rect x="661" y="630" width="28" height="16" rx="4" ry="4" fill="#b9cbff" fill-opacity="0.58" stroke="none" /><rect x="694" y="630" width="28" height="16" rx="4" ry="4" fill="#b9cbff" fill-opacity="0.85" stroke="none" /><rect x="727" y="630" width="28" height="16" rx="4" ry="4" fill="#b9cbff" fill-opacity="0.58" stroke="none" /><rect x="760" y="630" width="28" height="16" rx="4" ry="4" fill="#f5f6fa" fill-opacity="0.85" stroke="none" /><rect x="793" y="630" width="28" height="16" rx="4" ry="4" fill="#f5f6fa" fill-opacity="0.58" stroke="none" /><rect x="628" y="651" width="28" height="16" rx="4" ry="4" fill="#b9cbff" fill-opacity="0.58" stroke="none" /><rect x="661" y="651" width="28" height="16" rx="4" ry="4" fill="#b9cbff" fill-opacity="0.85" stroke="none" /><rect x="694" y="651" width="28" height="16" rx="4" ry="4" fill="#b9cbff" fill-opacity="0.58" stroke="none" /><rect x="727" y="651" width="28" height="16" rx="4" ry="4" fill="#b9cbff" fill-opacity="0.85" stroke="none" /><rect x="760" y="651" width="28" height="16" rx="4" ry="4" fill="#f5f6fa" fill-opacity="0.58" stroke="none" /><rect x="793" y="651" width="28" height="16" rx="4" ry="4" fill="#f5f6fa" fill-opacity="0.85" stroke="none" /><rect x="628" y="672" width="28" height="16" rx="4" ry="4" fill="#b9cbff" fill-opacity="0.85" stroke="none" /><rect x="661" y="672" width="28" height="16" rx="4" ry="4" fill="#b9cbff" fill-opacity="0.58" stroke="none" /><rect x="694" y="672" width="28" height="16" rx="4" ry="4" fill="#b9cbff" fill-opacity="0.85" stroke="none" /><rect x="727" y="672" width="28" height="16" rx="4" ry="4" fill="#b9cbff" fill-opacity="0.58" stroke="none" /><rect x="760" y="672" width="28" height="16" rx="4" ry="4" fill="#f5f6fa" fill-opacity="0.85" stroke="none" /><rect x="793" y="672" width="28" height="16" rx="4" ry="4" fill="#f5f6fa" fill-opacity="0.58" stroke="none" /><text x="628" y="662" font-size="16" font-weight="500" fill="#5b6577" text-anchor="start" font-family="Inter, Segoe UI, PingFang SC, Microsoft YaHei, Noto Sans CJK SC, sans-serif"><tspan x="628" dy="0">行: 一个 run / sample</tspan></text><text x="628" y="683" font-size="16" font-weight="500" fill="#5b6577" text-anchor="start" font-family="Inter, Segoe UI, PingFang SC, Microsoft YaHei, Noto Sans CJK SC, sans-serif"><tspan x="628" dy="0">列: 一个表示维度</tspan></text><line x1="872" y1="470" x2="980" y2="470" stroke="#25324d" stroke-width="3" stroke-linecap="round" marker-end="url(#arrow)" /><rect x="930" y="180" width="790" height="520" rx="24" ry="24" fill="#ffffff" stroke="#dbe2f1" stroke-width="2.2" /><rect x="954" y="200" width="120" height="38" rx="19.0" ry="19.0" fill="#fff1df" stroke="#ea8a00" stroke-width="1.8" /><text x="1014.0" y="225.0" font-size="21" font-weight="650" fill="#ea8a00" text-anchor="middle" font-family="Inter, Segoe UI, PingFang SC, Microsoft YaHei, Noto Sans CJK SC, sans-serif"><tspan x="1014.0" dy="0">③ SVD 分解</tspan></text><text x="954" y="270" font-size="31" font-weight="800" fill="#ea8a00" text-anchor="start" font-family="Inter, Segoe UI, PingFang SC, Microsoft YaHei, Noto Sans CJK SC, sans-serif"><tspan x="954" dy="0">TruncatedSVD(n_components = r_eff)</tspan></text><text x="954" y="312" font-size="21" font-weight="700" fill="#172033" text-anchor="start" font-family="Inter, Segoe UI, PingFang SC, Microsoft YaHei, Noto Sans CJK SC, sans-serif"><tspan x="954" dy="0">r_eff = min(请求的 rank, d_rep, n - 1)</tspan></text><text x="954" y="350" font-size="26" font-weight="760" fill="#172033" text-anchor="start" font-family="Inter, Segoe UI, PingFang SC, Microsoft YaHei, Noto Sans CJK SC, sans-serif"><tspan x="954" dy="0">数学上：X_scaled ≈ U_r Σ_r V_r^T</tspan></text><text x="954" y="386" font-size="19" font-weight="500" fill="#5b6577" text-anchor="start" font-family="Inter, Segoe UI, PingFang SC, Microsoft YaHei, Noto Sans CJK SC, sans-serif"><tspan x="954" dy="0">实现里真正拿出来用的是 V_r、σ_r，以及低维坐标 Z</tspan></text><text x="954" y="415" font-size="19" font-weight="500" fill="#5b6577" text-anchor="start" font-family="Inter, Segoe UI, PingFang SC, Microsoft YaHei, Noto Sans CJK SC, sans-serif"><tspan x="954" dy="0">其中 Z = X_scaled · V_r^T ；如果 whiten=True，再做 Z / σ_r</tspan></text><text x="962" y="492" font-size="21" font-weight="700" fill="#172033" text-anchor="start" font-family="Inter, Segoe UI, PingFang SC, Microsoft YaHei, Noto Sans CJK SC, sans-serif"><tspan x="962" dy="0">奇异值大小（示意）</tspan></text><line x1="962" y1="518" x2="1252" y2="518" stroke="#6b7486" stroke-width="2.3" stroke-linecap="round" /><rect x="980" y="434" width="24" height="84" rx="6" ry="6" fill="#ea8a00" stroke="#ea8a00" stroke-width="1.2" /><text x="992.0" y="546" font-size="16" font-weight="500" fill="#5b6577" text-anchor="middle" font-family="Inter, Segoe UI, PingFang SC, Microsoft YaHei, Noto Sans CJK SC, sans-serif"><tspan x="992.0" dy="0">1</tspan></text><rect x="1014" y="448" width="24" height="70" rx="6" ry="6" fill="#ea8a00" stroke="#ea8a00" stroke-width="1.2" /><text x="1026.0" y="546" font-size="16" font-weight="500" fill="#5b6577" text-anchor="middle" font-family="Inter, Segoe UI, PingFang SC, Microsoft YaHei, Noto Sans CJK SC, sans-serif"><tspan x="1026.0" dy="0">2</tspan></text><rect x="1048" y="460" width="24" height="58" rx="6" ry="6" fill="#ea8a00" stroke="#ea8a00" stroke-width="1.2" /><text x="1060.0" y="546" font-size="16" font-weight="500" fill="#5b6577" text-anchor="middle" font-family="Inter, Segoe UI, PingFang SC, Microsoft YaHei, Noto Sans CJK SC, sans-serif"><tspan x="1060.0" dy="0">3</tspan></text><rect x="1082" y="471" width="24" height="47" rx="6" ry="6" fill="#ea8a00" stroke="#ea8a00" stroke-width="1.2" /><text x="1094.0" y="546" font-size="16" font-weight="500" fill="#5b6577" text-anchor="middle" font-family="Inter, Segoe UI, PingFang SC, Microsoft YaHei, Noto Sans CJK SC, sans-serif"><tspan x="1094.0" dy="0">r</tspan></text><rect x="1116" y="482" width="24" height="36" rx="6" ry="6" fill="#cfd5e3" stroke="#cfd5e3" stroke-width="1.2" /><text x="1128.0" y="546" font-size="16" font-weight="500" fill="#5b6577" text-anchor="middle" font-family="Inter, Segoe UI, PingFang SC, Microsoft YaHei, Noto Sans CJK SC, sans-serif"><tspan x="1128.0" dy="0">r+1</tspan></text><rect x="1150" y="489" width="24" height="29" rx="6" ry="6" fill="#cfd5e3" stroke="#cfd5e3" stroke-width="1.2" /><rect x="1184" y="494" width="24" height="24" rx="6" ry="6" fill="#cfd5e3" stroke="#cfd5e3" stroke-width="1.2" /><rect x="1218" y="498" width="24" height="20" rx="6" ry="6" fill="#cfd5e3" stroke="#cfd5e3" stroke-width="1.2" /><text x="1230.0" y="546" font-size="16" font-weight="500" fill="#5b6577" text-anchor="middle" font-family="Inter, Segoe UI, PingFang SC, Microsoft YaHei, Noto Sans CJK SC, sans-serif"><tspan x="1230.0" dy="0">k</tspan></text><text x="1112" y="580" font-size="18" font-weight="700" fill="#ea8a00" text-anchor="start" font-family="Inter, Segoe UI, PingFang SC, Microsoft YaHei, Noto Sans CJK SC, sans-serif"><tspan x="1112" dy="0">保留前 r_eff 个</tspan></text><text x="1112" y="605" font-size="17" font-weight="500" fill="#5b6577" text-anchor="start" font-family="Inter, Segoe UI, PingFang SC, Microsoft YaHei, Noto Sans CJK SC, sans-serif"><tspan x="1112" dy="0">后面的方向直接丢弃</tspan></text><rect x="1210" y="472" width="230" height="150" rx="18" ry="18" fill="#ffffff" stroke="#ea8a00" stroke-width="2.5" /><rect x="1224" y="486" width="82" height="34" rx="12" ry="12" fill="#fff1df" stroke="#ea8a00" stroke-width="1.5" /><text x="1265" y="510" font-size="18" font-weight="700" fill="#ea8a00" text-anchor="middle" font-family="Inter, Segoe UI, PingFang SC, Microsoft YaHei, Noto Sans CJK SC, sans-serif"><tspan x="1265" dy="0">Z</tspan></text><text x="1322" y="516" font-size="17" font-weight="500" fill="#5b6577" text-anchor="start" font-family="Inter, Segoe UI, PingFang SC, Microsoft YaHei, Noto Sans CJK SC, sans-serif"><tspan x="1322" dy="0">低维坐标  (n × r_eff)</tspan></text><rect x="1228" y="532" width="28" height="16" rx="4" ry="4" fill="#ffd49b" fill-opacity="0.85" stroke="none" /><rect x="1261" y="532" width="28" height="16" rx="4" ry="4" fill="#ffd49b" fill-opacity="0.58" stroke="none" /><rect x="1294" y="532" width="28" height="16" rx="4" ry="4" fill="#f5f6fa" fill-opacity="0.85" stroke="none" /><rect x="1327" y="532" width="28" height="16" rx="4" ry="4" fill="#f5f6fa" fill-opacity="0.58" stroke="none" /><rect x="1228" y="553" width="28" height="16" rx="4" ry="4" fill="#ffd49b" fill-opacity="0.58" stroke="none" /><rect x="1261" y="553" width="28" height="16" rx="4" ry="4" fill="#ffd49b" fill-opacity="0.85" stroke="none" /><rect x="1294" y="553" width="28" height="16" rx="4" ry="4" fill="#f5f6fa" fill-opacity="0.58" stroke="none" /><rect x="1327" y="553" width="28" height="16" rx="4" ry="4" fill="#f5f6fa" fill-opacity="0.85" stroke="none" /><rect x="1228" y="574" width="28" height="16" rx="4" ry="4" fill="#ffd49b" fill-opacity="0.85" stroke="none" /><rect x="1261" y="574" width="28" height="16" rx="4" ry="4" fill="#ffd49b" fill-opacity="0.58" stroke="none" /><rect x="1294" y="574" width="28" height="16" rx="4" ry="4" fill="#f5f6fa" fill-opacity="0.85" stroke="none" /><rect x="1327" y="574" width="28" height="16" rx="4" ry="4" fill="#f5f6fa" fill-opacity="0.58" stroke="none" /><rect x="1228" y="595" width="28" height="16" rx="4" ry="4" fill="#ffd49b" fill-opacity="0.58" stroke="none" /><rect x="1261" y="595" width="28" height="16" rx="4" ry="4" fill="#ffd49b" fill-opacity="0.85" stroke="none" /><rect x="1294" y="595" width="28" height="16" rx="4" ry="4" fill="#f5f6fa" fill-opacity="0.58" stroke="none" /><rect x="1327" y="595" width="28" height="16" rx="4" ry="4" fill="#f5f6fa" fill-opacity="0.85" stroke="none" /><rect x="1228" y="616" width="28" height="16" rx="4" ry="4" fill="#ffd49b" fill-opacity="0.85" stroke="none" /><rect x="1261" y="616" width="28" height="16" rx="4" ry="4" fill="#ffd49b" fill-opacity="0.58" stroke="none" /><rect x="1294" y="616" width="28" height="16" rx="4" ry="4" fill="#f5f6fa" fill-opacity="0.85" stroke="none" /><rect x="1327" y="616" width="28" height="16" rx="4" ry="4" fill="#f5f6fa" fill-opacity="0.58" stroke="none" /><text x="1228" y="606" font-size="16" font-weight="500" fill="#5b6577" text-anchor="start" font-family="Inter, Segoe UI, PingFang SC, Microsoft YaHei, Noto Sans CJK SC, sans-serif"><tspan x="1228" dy="0">行: 一个 run / sample</tspan></text><text x="1228" y="627" font-size="16" font-weight="500" fill="#5b6577" text-anchor="start" font-family="Inter, Segoe UI, PingFang SC, Microsoft YaHei, Noto Sans CJK SC, sans-serif"><tspan x="1228" dy="0">列: 一个表示维度</tspan></text><rect x="1470" y="472" width="230" height="150" rx="18" ry="18" fill="#ffffff" stroke="#7658ff" stroke-width="2.5" /><rect x="1484" y="486" width="82" height="34" rx="12" ry="12" fill="#efe9ff" stroke="#7658ff" stroke-width="1.5" /><text x="1525" y="510" font-size="18" font-weight="700" fill="#7658ff" text-anchor="middle" font-family="Inter, Segoe UI, PingFang SC, Microsoft YaHei, Noto Sans CJK SC, sans-serif"><tspan x="1525" dy="0">V_r</tspan></text><text x="1582" y="516" font-size="17" font-weight="500" fill="#5b6577" text-anchor="start" font-family="Inter, Segoe UI, PingFang SC, Microsoft YaHei, Noto Sans CJK SC, sans-serif"><tspan x="1582" dy="0">components_  (r_eff × d_rep)</tspan></text><rect x="1488" y="532" width="28" height="16" rx="4" ry="4" fill="#d8cdfd" fill-opacity="0.85" stroke="none" /><rect x="1521" y="532" width="28" height="16" rx="4" ry="4" fill="#d8cdfd" fill-opacity="0.58" stroke="none" /><rect x="1554" y="532" width="28" height="16" rx="4" ry="4" fill="#d8cdfd" fill-opacity="0.85" stroke="none" /><rect x="1587" y="532" width="28" height="16" rx="4" ry="4" fill="#d8cdfd" fill-opacity="0.58" stroke="none" /><rect x="1620" y="532" width="28" height="16" rx="4" ry="4" fill="#f5f6fa" fill-opacity="0.85" stroke="none" /><rect x="1653" y="532" width="28" height="16" rx="4" ry="4" fill="#f5f6fa" fill-opacity="0.58" stroke="none" /><rect x="1488" y="553" width="28" height="16" rx="4" ry="4" fill="#d8cdfd" fill-opacity="0.58" stroke="none" /><rect x="1521" y="553" width="28" height="16" rx="4" ry="4" fill="#d8cdfd" fill-opacity="0.85" stroke="none" /><rect x="1554" y="553" width="28" height="16" rx="4" ry="4" fill="#d8cdfd" fill-opacity="0.58" stroke="none" /><rect x="1587" y="553" width="28" height="16" rx="4" ry="4" fill="#d8cdfd" fill-opacity="0.85" stroke="none" /><rect x="1620" y="553" width="28" height="16" rx="4" ry="4" fill="#f5f6fa" fill-opacity="0.58" stroke="none" /><rect x="1653" y="553" width="28" height="16" rx="4" ry="4" fill="#f5f6fa" fill-opacity="0.85" stroke="none" /><rect x="1488" y="574" width="28" height="16" rx="4" ry="4" fill="#d8cdfd" fill-opacity="0.85" stroke="none" /><rect x="1521" y="574" width="28" height="16" rx="4" ry="4" fill="#d8cdfd" fill-opacity="0.58" stroke="none" /><rect x="1554" y="574" width="28" height="16" rx="4" ry="4" fill="#d8cdfd" fill-opacity="0.85" stroke="none" /><rect x="1587" y="574" width="28" height="16" rx="4" ry="4" fill="#d8cdfd" fill-opacity="0.58" stroke="none" /><rect x="1620" y="574" width="28" height="16" rx="4" ry="4" fill="#f5f6fa" fill-opacity="0.85" stroke="none" /><rect x="1653" y="574" width="28" height="16" rx="4" ry="4" fill="#f5f6fa" fill-opacity="0.58" stroke="none" /><rect x="1488" y="595" width="28" height="16" rx="4" ry="4" fill="#d8cdfd" fill-opacity="0.58" stroke="none" /><rect x="1521" y="595" width="28" height="16" rx="4" ry="4" fill="#d8cdfd" fill-opacity="0.85" stroke="none" /><rect x="1554" y="595" width="28" height="16" rx="4" ry="4" fill="#d8cdfd" fill-opacity="0.58" stroke="none" /><rect x="1587" y="595" width="28" height="16" rx="4" ry="4" fill="#d8cdfd" fill-opacity="0.85" stroke="none" /><rect x="1620" y="595" width="28" height="16" rx="4" ry="4" fill="#f5f6fa" fill-opacity="0.58" stroke="none" /><rect x="1653" y="595" width="28" height="16" rx="4" ry="4" fill="#f5f6fa" fill-opacity="0.85" stroke="none" /><text x="1488" y="606" font-size="16" font-weight="500" fill="#5b6577" text-anchor="start" font-family="Inter, Segoe UI, PingFang SC, Microsoft YaHei, Noto Sans CJK SC, sans-serif"><tspan x="1488" dy="0">行: 一个 run / sample</tspan></text><text x="1488" y="627" font-size="16" font-weight="500" fill="#5b6577" text-anchor="start" font-family="Inter, Segoe UI, PingFang SC, Microsoft YaHei, Noto Sans CJK SC, sans-serif"><tspan x="1488" dy="0">列: 一个表示维度</tspan></text><rect x="1760" y="472" width="220" height="150" rx="18" ry="18" fill="#ffffff" stroke="#ea8a00" stroke-width="2.5" /><rect x="1778" y="490" width="92" height="32" rx="16.0" ry="16.0" fill="#fff1df" stroke="#ea8a00" stroke-width="1.8" /><text x="1824.0" y="512.0" font-size="18" font-weight="650" fill="#ea8a00" text-anchor="middle" font-family="Inter, Segoe UI, PingFang SC, Microsoft YaHei, Noto Sans CJK SC, sans-serif"><tspan x="1824.0" dy="0">σ_r</tspan></text><text x="1880" y="513" font-size="17" font-weight="500" fill="#5b6577" text-anchor="start" font-family="Inter, Segoe UI, PingFang SC, Microsoft YaHei, Noto Sans CJK SC, sans-serif"><tspan x="1880" dy="0">singular_values_</tspan></text><text x="1778" y="550" font-size="21" font-weight="700" fill="#172033" text-anchor="start" font-family="Inter, Segoe UI, PingFang SC, Microsoft YaHei, Noto Sans CJK SC, sans-serif"><tspan x="1778" dy="0">如果 whiten=True</tspan></text><text x="1778" y="582" font-size="21" font-weight="650" fill="#ea8a00" text-anchor="start" font-family="Inter, Segoe UI, PingFang SC, Microsoft YaHei, Noto Sans CJK SC, sans-serif"><tspan x="1778" dy="0">Z_white = Z / σ_r</tspan></text><text x="1778" y="612" font-size="17" font-weight="500" fill="#5b6577" text-anchor="start" font-family="Inter, Segoe UI, PingFang SC, Microsoft YaHei, Noto Sans CJK SC, sans-serif"><tspan x="1778" dy="0">等价于更接近 U_r</tspan></text><text x="955" y="620" font-size="19" font-weight="700" fill="#ea8a00" text-anchor="start" font-family="Inter, Segoe UI, PingFang SC, Microsoft YaHei, Noto Sans CJK SC, sans-serif"><tspan x="955" dy="0">你问“截断了什么”——就是只保留最大的前 r_eff 个奇异方向；</tspan></text><text x="955" y="647" font-size="19" font-weight="500" fill="#5b6577" text-anchor="start" font-family="Inter, Segoe UI, PingFang SC, Microsoft YaHei, Noto Sans CJK SC, sans-serif"><tspan x="955" dy="0">r_eff 后面的奇异值、对应方向和对应坐标，全部不再进入下游分类头。</tspan></text><line x1="1320" y1="700" x2="1320" y2="758" stroke="#25324d" stroke-width="3" stroke-linecap="round" marker-end="url(#arrow)" /><rect x="980" y="760" width="740" height="240" rx="24" ry="24" fill="#ffffff" stroke="#dbe2f1" stroke-width="2.2" /><rect x="1004" y="782" width="130" height="38" rx="19.0" ry="19.0" fill="#ffe7ea" stroke="#d9415d" stroke-width="1.8" /><text x="1069.0" y="807.0" font-size="21" font-weight="650" fill="#d9415d" text-anchor="middle" font-family="Inter, Segoe UI, PingFang SC, Microsoft YaHei, Noto Sans CJK SC, sans-serif"><tspan x="1069.0" dy="0">④ 分类头</tspan></text><text x="1004" y="852" font-size="29" font-weight="800" fill="#d9415d" text-anchor="start" font-family="Inter, Segoe UI, PingFang SC, Microsoft YaHei, Noto Sans CJK SC, sans-serif"><tspan x="1004" dy="0">LogisticRegression 在线性低维空间里做分类</tspan></text><text x="1004" y="895" font-size="22" font-weight="700" fill="#172033" text-anchor="start" font-family="Inter, Segoe UI, PingFang SC, Microsoft YaHei, Noto Sans CJK SC, sans-serif"><tspan x="1004" dy="0">输入是一行低维向量 z_i ∈ R^(r_eff)</tspan></text><text x="1004" y="931" font-size="28" font-weight="800" fill="#172033" text-anchor="start" font-family="Inter, Segoe UI, PingFang SC, Microsoft YaHei, Noto Sans CJK SC, sans-serif"><tspan x="1004" dy="0">score_i = β^T z_i + b</tspan></text><text x="1286" y="931" font-size="30" font-weight="800" fill="#25324d" text-anchor="start" font-family="Inter, Segoe UI, PingFang SC, Microsoft YaHei, Noto Sans CJK SC, sans-serif"><tspan x="1286" dy="0">→</tspan></text><text x="1322" y="931" font-size="25" font-weight="760" fill="#d9415d" text-anchor="start" font-family="Inter, Segoe UI, PingFang SC, Microsoft YaHei, Noto Sans CJK SC, sans-serif"><tspan x="1322" dy="0">p_i = sigmoid(score_i)</tspan></text><text x="1004" y="968" font-size="18" font-weight="500" fill="#5b6577" text-anchor="start" font-family="Inter, Segoe UI, PingFang SC, Microsoft YaHei, Noto Sans CJK SC, sans-serif"><tspan x="1004" dy="0">也就是说：真正进入分类头的不是原始高维列，而是截断后的 r_eff 个 SVD 坐标。</tspan></text><rect x="70" y="860" width="860" height="140" rx="24" ry="24" fill="#ffffff" stroke="#dbe2f1" stroke-width="2.2" /><rect x="92" y="882" width="146" height="38" rx="19.0" ry="19.0" fill="#efe9ff" stroke="#7658ff" stroke-width="1.8" /><text x="165.0" y="907.0" font-size="21" font-weight="650" fill="#7658ff" text-anchor="middle" font-family="Inter, Segoe UI, PingFang SC, Microsoft YaHei, Noto Sans CJK SC, sans-serif"><tspan x="165.0" dy="0">⑤ 解释时可回投</tspan></text><text x="92" y="947" font-size="23" font-weight="720" fill="#172033" text-anchor="start" font-family="Inter, Segoe UI, PingFang SC, Microsoft YaHei, Noto Sans CJK SC, sans-serif"><tspan x="92" dy="0">若想看“分类头最终在原表示维度上重视什么”，可把头权重回投回去：</tspan></text><text x="92" y="983" font-size="24" font-weight="760" fill="#7658ff" text-anchor="start" font-family="Inter, Segoe UI, PingFang SC, Microsoft YaHei, Noto Sans CJK SC, sans-serif"><tspan x="92" dy="0">w_scaled = V_r^T β</tspan></text><text x="282" y="983" font-size="20" font-weight="500" fill="#5b6577" text-anchor="start" font-family="Inter, Segoe UI, PingFang SC, Microsoft YaHei, Noto Sans CJK SC, sans-serif"><tspan x="282" dy="0">；若 whiten=True，则</tspan></text><text x="446" y="983" font-size="24" font-weight="760" fill="#7658ff" text-anchor="start" font-family="Inter, Segoe UI, PingFang SC, Microsoft YaHei, Noto Sans CJK SC, sans-serif"><tspan x="446" dy="0">w_scaled = V_r^T (β / σ_r)</tspan></text><text x="705" y="983" font-size="19" font-weight="500" fill="#5b6577" text-anchor="start" font-family="Inter, Segoe UI, PingFang SC, Microsoft YaHei, Noto Sans CJK SC, sans-serif"><tspan x="705" dy="0">，再除以 scaler.scale_ 可回到原始表示坐标。</tspan></text><rect x="580" y="700" width="290" height="170" rx="20" ry="20" fill="#f9fbff" stroke="#dbe2f1" stroke-width="2.0" /><text x="604" y="742" font-size="24" font-weight="800" fill="#172033" text-anchor="start" font-family="Inter, Segoe UI, PingFang SC, Microsoft YaHei, Noto Sans CJK SC, sans-serif"><tspan x="604" dy="0">一句话总结</tspan></text><text x="604" y="783" font-size="20" font-weight="500" fill="#5b6577" text-anchor="start" font-family="Inter, Segoe UI, PingFang SC, Microsoft YaHei, Noto Sans CJK SC, sans-serif"><tspan x="604" dy="0">你的“大矩阵”不是凭空来的，</tspan></text><text x="604" y="810" font-size="20" font-weight="500" fill="#5b6577" text-anchor="start" font-family="Inter, Segoe UI, PingFang SC, Microsoft YaHei, Noto Sans CJK SC, sans-serif"><tspan x="604" dy="0">它是从 X_raw / X_rank 选列后</tspan></text><text x="604" y="837" font-size="20" font-weight="500" fill="#5b6577" text-anchor="start" font-family="Inter, Segoe UI, PingFang SC, Microsoft YaHei, Noto Sans CJK SC, sans-serif"><tspan x="604" dy="0">拼成的 X_rep；SVD 只保留前 r_eff 个方向，</tspan></text><text x="604" y="864" font-size="20" font-weight="700" fill="#2f6fed" text-anchor="start" font-family="Inter, Segoe UI, PingFang SC, Microsoft YaHei, Noto Sans CJK SC, sans-serif"><tspan x="604" dy="0">分类头只吃这 r_eff 维低维表示。</tspan></text><line x1="90" y1="1030" x2="1710" y2="1030" stroke="#dbe2f1" stroke-width="2" stroke-linecap="round" /><rect x="96" y="1040" width="110" height="30" rx="15.0" ry="15.0" fill="#e8f1ff" stroke="#2f6fed" stroke-width="1.8" /><text x="151.0" y="1061.0" font-size="16" font-weight="650" fill="#2f6fed" text-anchor="middle" font-family="Inter, Segoe UI, PingFang SC, Microsoft YaHei, Noto Sans CJK SC, sans-serif"><tspan x="151.0" dy="0">蓝色=原值流</tspan></text><rect x="220" y="1040" width="120" height="30" rx="15.0" ry="15.0" fill="#e7f8ef" stroke="#1f9d61" stroke-width="1.8" /><text x="280.0" y="1061.0" font-size="16" font-weight="650" fill="#1f9d61" text-anchor="middle" font-family="Inter, Segoe UI, PingFang SC, Microsoft YaHei, Noto Sans CJK SC, sans-serif"><tspan x="280.0" dy="0">绿色=rank流</tspan></text><rect x="354" y="1040" width="128" height="30" rx="15.0" ry="15.0" fill="#fff1df" stroke="#ea8a00" stroke-width="1.8" /><text x="418.0" y="1061.0" font-size="16" font-weight="650" fill="#ea8a00" text-anchor="middle" font-family="Inter, Segoe UI, PingFang SC, Microsoft YaHei, Noto Sans CJK SC, sans-serif"><tspan x="418.0" dy="0">橙色=SVD/截断</tspan></text><rect x="496" y="1040" width="140" height="30" rx="15.0" ry="15.0" fill="#ffe7ea" stroke="#d9415d" stroke-width="1.8" /><text x="566.0" y="1061.0" font-size="16" font-weight="650" fill="#d9415d" text-anchor="middle" font-family="Inter, Segoe UI, PingFang SC, Microsoft YaHei, Noto Sans CJK SC, sans-serif"><tspan x="566.0" dy="0">红色=分类头</tspan></text><text x="1490" y="1060" font-size="15" font-weight="500" fill="#80889a" text-anchor="end" font-family="Inter, Segoe UI, PingFang SC, Microsoft YaHei, Noto Sans CJK SC, sans-serif"><tspan x="1490" dy="0">文件生成：scripts/render_svd_matrix_explainer.py</tspan></text></svg>